<svg width="25" height="24" viewBox="0 0 25 24" fill="none" xmlns="http://www.w3.org/2000/svg">
<path fill-rule="evenodd" clip-rule="evenodd" d="M8.82918 2.66459C8.95622 2.4105 9.21592 2.25 9.5 2.25H15.5C15.7841 2.25 16.0438 2.4105 16.1708 2.66459L17.6708 5.66459C17.7871 5.89708 17.7746 6.17319 17.638 6.3943C17.5013 6.61541 17.2599 6.75 17 6.75H8C7.74007 6.75 7.49867 6.61541 7.36201 6.3943C7.22536 6.17319 7.21293 5.89708 7.32918 5.66459L8.82918 2.66459ZM9.96353 3.75L9.21353 5.25H15.7865L15.0365 3.75H9.96353Z" fill="#333333"/>
<path fill-rule="evenodd" clip-rule="evenodd" d="M4 6.75C3.58579 6.75 3.25 7.08579 3.25 7.5V19.5C3.25 19.9142 3.58579 20.25 4 20.25H21C21.4142 20.25 21.75 19.9142 21.75 19.5V7.5C21.75 7.08579 21.4142 6.75 21 6.75H4ZM1.75 7.5C1.75 6.25736 2.75736 5.25 4 5.25H21C22.2426 5.25 23.25 6.25736 23.25 7.5V19.5C23.25 20.7426 22.2426 21.75 21 21.75H4C2.75736 21.75 1.75 20.7426 1.75 19.5V7.5Z" fill="#333333"/>
<path fill-rule="evenodd" clip-rule="evenodd" d="M7.75 13.5C7.75 10.8766 9.87664 8.75 12.5 8.75C15.1234 8.75 17.25 10.8766 17.25 13.5C17.25 16.1234 15.1234 18.25 12.5 18.25C9.87664 18.25 7.75 16.1234 7.75 13.5ZM12.5 10.25C10.7051 10.25 9.25 11.7051 9.25 13.5C9.25 15.2949 10.7051 16.75 12.5 16.75C14.2949 16.75 15.75 15.2949 15.75 13.5C15.75 11.7051 14.2949 10.25 12.5 10.25Z" fill="#333333"/>
</svg>
