<svg width="151" height="151" viewBox="0 0 151 151" fill="none" xmlns="http://www.w3.org/2000/svg">
<path fill-rule="evenodd" clip-rule="evenodd" d="M75.5 7.86426C78.1061 7.86426 80.2188 9.97691 80.2188 12.583V25.1663C80.2188 27.7724 78.1061 29.8851 75.5 29.8851C72.8939 29.8851 70.7812 27.7724 70.7812 25.1663V12.583C70.7812 9.97691 72.8939 7.86426 75.5 7.86426Z" fill="#F6F6F6"/>
<path fill-rule="evenodd" clip-rule="evenodd" d="M109.316 16.926C111.573 18.229 112.346 21.115 111.043 23.3719L104.751 34.2693C103.448 36.5262 100.562 37.2995 98.3055 35.9964C96.0485 34.6933 95.2752 31.8074 96.5783 29.5505L102.87 18.6531C104.173 16.3962 107.059 15.6229 109.316 16.926Z" fill="#F6F6F6"/>
<path fill-rule="evenodd" clip-rule="evenodd" d="M134.075 41.6824C135.378 43.9394 134.604 46.8253 132.347 48.1284L121.45 54.42C119.193 55.7231 116.307 54.9498 115.004 52.6928C113.701 50.4359 114.474 47.55 116.731 46.2469L127.629 39.9552C129.886 38.6522 132.772 39.4255 134.075 41.6824Z" fill="#F6F6F6"/>
<path fill-rule="evenodd" clip-rule="evenodd" d="M121.113 75.5C121.113 72.8939 123.226 70.7812 125.832 70.7812H138.415C141.021 70.7812 143.134 72.8939 143.134 75.5C143.134 78.1061 141.021 80.2188 138.415 80.2188H125.832C123.226 80.2188 121.113 78.1061 121.113 75.5Z" fill="#DE93A6"/>
<path fill-rule="evenodd" clip-rule="evenodd" d="M115.004 98.3074C116.307 96.0505 119.193 95.2772 121.45 96.5802L132.347 102.872C134.604 104.175 135.378 107.061 134.075 109.318C132.772 111.575 129.886 112.348 127.629 111.045L116.731 104.753C114.474 103.45 113.701 100.564 115.004 98.3074Z" fill="#DE93A6"/>
<path fill-rule="evenodd" clip-rule="evenodd" d="M98.3055 115.004C100.562 113.701 103.448 114.474 104.751 116.731L111.043 127.629C112.346 129.886 111.573 132.772 109.316 134.075C107.059 135.378 104.173 134.604 102.87 132.347L96.5783 121.45C95.2752 119.193 96.0485 116.307 98.3055 115.004Z" fill="#DE93A6"/>
<path fill-rule="evenodd" clip-rule="evenodd" d="M75.5 121.114C78.1061 121.114 80.2188 123.227 80.2188 125.833V138.416C80.2188 141.022 78.1061 143.135 75.5 143.135C72.8939 143.135 70.7812 141.022 70.7812 138.416V125.833C70.7812 123.227 72.8939 121.114 75.5 121.114Z" fill="#BE8184"/>
<path fill-rule="evenodd" clip-rule="evenodd" d="M52.6909 115.004C54.9478 116.307 55.7211 119.193 54.4181 121.45L48.1264 132.347C46.8234 134.604 43.9374 135.378 41.6805 134.075C39.4235 132.772 38.6502 129.886 39.9533 127.629L46.245 116.731C47.548 114.474 50.434 113.701 52.6909 115.004Z" fill="#BE8184"/>
<path fill-rule="evenodd" clip-rule="evenodd" d="M35.9964 98.3074C37.2995 100.564 36.5262 103.45 34.2693 104.753L23.3719 111.045C21.115 112.348 18.229 111.575 16.926 109.318C15.6229 107.061 16.3962 104.175 18.6531 102.872L29.5505 96.5803C31.8074 95.2772 34.6933 96.0505 35.9964 98.3074Z" fill="#BE8184"/>
<path fill-rule="evenodd" clip-rule="evenodd" d="M7.86328 75.5C7.86328 72.8939 9.97594 70.7812 12.582 70.7812H25.1654C27.7715 70.7812 29.8841 72.8939 29.8841 75.5C29.8841 78.1061 27.7715 80.2188 25.1654 80.2188H12.582C9.97594 80.2188 7.86328 78.1061 7.86328 75.5Z" fill="#BE8184"/>
<path fill-rule="evenodd" clip-rule="evenodd" d="M16.926 41.6824C18.229 39.4255 21.115 38.6522 23.3719 39.9553L34.2693 46.2469C36.5262 47.55 37.2995 50.4359 35.9964 52.6929C34.6933 54.9498 31.8074 55.7231 29.5505 54.42L18.6531 48.1283C16.3962 46.8253 15.6229 43.9393 16.926 41.6824Z" fill="#F6F6F6"/>
<path fill-rule="evenodd" clip-rule="evenodd" d="M41.6805 16.926C43.9374 15.6229 46.8233 16.3962 48.1264 18.6531L54.4181 29.5505C55.7211 31.8074 54.9478 34.6933 52.6909 35.9964C50.434 37.2995 47.548 36.5262 46.245 34.2693L39.9533 23.3719C38.6502 21.115 39.4235 18.229 41.6805 16.926Z" fill="#F6F6F6"/>
</svg>
