<svg width="25" height="25" viewBox="0 0 25 25" fill="none" xmlns="http://www.w3.org/2000/svg">
<path fill-rule="evenodd" clip-rule="evenodd" d="M3.41406 5.41309C3.41406 4.99887 3.74985 4.66309 4.16406 4.66309H20.1641C20.5783 4.66309 20.9141 4.99887 20.9141 5.41309C20.9141 5.8273 20.5783 6.16309 20.1641 6.16309H4.16406C3.74985 6.16309 3.41406 5.8273 3.41406 5.41309Z" fill="#F6F6F6"/>
<path fill-rule="evenodd" clip-rule="evenodd" d="M11.4141 9.91309C11.4141 9.49887 11.7498 9.16309 12.1641 9.16309H20.1641C20.5783 9.16309 20.9141 9.49887 20.9141 9.91309C20.9141 10.3273 20.5783 10.6631 20.1641 10.6631H12.1641C11.7498 10.6631 11.4141 10.3273 11.4141 9.91309Z" fill="#F6F6F6"/>
<path fill-rule="evenodd" clip-rule="evenodd" d="M11.4141 14.4131C11.4141 13.9989 11.7498 13.6631 12.1641 13.6631H20.1641C20.5783 13.6631 20.9141 13.9989 20.9141 14.4131C20.9141 14.8273 20.5783 15.1631 20.1641 15.1631H12.1641C11.7498 15.1631 11.4141 14.8273 11.4141 14.4131Z" fill="#F6F6F6"/>
<path fill-rule="evenodd" clip-rule="evenodd" d="M3.41406 18.9131C3.41406 18.4989 3.74985 18.1631 4.16406 18.1631H20.1641C20.5783 18.1631 20.9141 18.4989 20.9141 18.9131C20.9141 19.3273 20.5783 19.6631 20.1641 19.6631H4.16406C3.74985 19.6631 3.41406 19.3273 3.41406 18.9131Z" fill="#F6F6F6"/>
<path fill-rule="evenodd" clip-rule="evenodd" d="M8.52764 9.0071C8.7661 9.13927 8.91406 9.39044 8.91406 9.66309V14.6631C8.91406 14.9357 8.7661 15.1869 8.52764 15.3191C8.28917 15.4512 7.99777 15.4436 7.76656 15.2991L3.76656 12.7991C3.54728 12.662 3.41406 12.4217 3.41406 12.1631C3.41406 11.9045 3.54728 11.6641 3.76656 11.5271L7.76656 9.02709C7.99777 8.88259 8.28917 8.87494 8.52764 9.0071ZM5.57916 12.1631L7.41406 13.3099V11.0163L5.57916 12.1631Z" fill="#F6F6F6"/>
</svg>
