<svg width="25" height="24" viewBox="0 0 25 24" fill="none" xmlns="http://www.w3.org/2000/svg">
<path fill-rule="evenodd" clip-rule="evenodd" d="M7.0685 9.9619C7.16433 10.3649 6.91535 10.7692 6.51237 10.8651C4.64114 11.3101 3.25 12.9935 3.25 14.9999C3.25 17.3471 5.15279 19.2499 7.5 19.2499C7.90389 19.2499 8.29338 19.1938 8.6617 19.0894C9.06021 18.9764 9.47485 19.2079 9.58782 19.6064C9.70079 20.0049 9.46931 20.4196 9.0708 20.5325C8.57062 20.6743 8.04351 20.7499 7.5 20.7499C4.32436 20.7499 1.75 18.1755 1.75 14.9999C1.75 12.283 3.63362 10.0079 6.16533 9.40577C6.5683 9.30994 6.97267 9.55893 7.0685 9.9619Z" fill="#333333"/>
<path fill-rule="evenodd" clip-rule="evenodd" d="M17.7979 9.9619C17.8938 9.55893 18.2981 9.30994 18.7011 9.40577C21.2329 10.0079 23.1164 12.283 23.1164 14.9999C23.1164 18.1755 20.5421 20.7499 17.3664 20.7499C16.8229 20.7499 16.2958 20.6743 15.7956 20.5325C15.3971 20.4196 15.1657 20.0049 15.2786 19.6064C15.3916 19.2079 15.8062 18.9764 16.2047 19.0894C16.5731 19.1938 16.9626 19.2499 17.3664 19.2499C19.7137 19.2499 21.6164 17.3471 21.6164 14.9999C21.6164 12.9935 20.2253 11.3101 18.3541 10.8651C17.9511 10.7692 17.7021 10.3649 17.7979 9.9619Z" fill="#333333"/>
<path fill-rule="evenodd" clip-rule="evenodd" d="M5.75 10C5.75 6.27209 8.77209 3.25 12.5 3.25C16.2279 3.25 19.25 6.27209 19.25 10C19.25 10.4142 18.9142 10.75 18.5 10.75C18.0858 10.75 17.75 10.4142 17.75 10C17.75 7.10051 15.3995 4.75 12.5 4.75C9.60051 4.75 7.25 7.10051 7.25 10C7.25 10.4142 6.91421 10.75 6.5 10.75C6.08579 10.75 5.75 10.4142 5.75 10Z" fill="#333333"/>
<path fill-rule="evenodd" clip-rule="evenodd" d="M11.9673 9.93246C12.2592 9.63955 12.7332 9.63824 13.0268 9.92952L16.5927 13.4677C16.8867 13.7595 16.8886 14.2343 16.5968 14.5284C16.3051 14.8224 15.8302 14.8243 15.5362 14.5325L12.5014 11.5214L9.56245 14.4701C9.27004 14.7634 8.79517 14.7642 8.50179 14.4718C8.20842 14.1794 8.20764 13.7045 8.50005 13.4112L11.9673 9.93246Z" fill="#333333"/>
<path fill-rule="evenodd" clip-rule="evenodd" d="M12.5 11.481C12.9142 11.481 13.25 11.8167 13.25 12.231V19.0001C13.25 19.4143 12.9142 19.7501 12.5 19.7501C12.0858 19.7501 11.75 19.4143 11.75 19.0001V12.231C11.75 11.8167 12.0858 11.481 12.5 11.481Z" fill="#333333"/>
</svg>
