<svg width="41" height="41" viewBox="0 0 41 41" fill="none" xmlns="http://www.w3.org/2000/svg">
<rect x="0.9375" y="0.5" width="40" height="40" rx="20" fill="white"/>
<path d="M24.648 21.2096C25.6284 20.4383 26.344 19.3806 26.6952 18.1836C27.0465 16.9866 27.0159 15.7099 26.6078 14.5311C26.1996 13.3523 25.4342 12.33 24.4181 11.6065C23.4019 10.883 22.1854 10.4941 20.938 10.4941C19.6905 10.4941 18.4741 10.883 17.4579 11.6065C16.4417 12.33 15.6763 13.3523 15.2682 14.5311C14.8601 15.7099 14.8295 16.9866 15.1807 18.1836C15.532 19.3806 16.2476 20.4383 17.228 21.2096C15.5481 21.8827 14.0823 22.999 12.9869 24.4396C11.8915 25.8801 11.2075 27.5909 11.008 29.3896C10.9935 29.521 11.0051 29.6538 11.042 29.7807C11.0789 29.9075 11.1405 30.0259 11.2231 30.129C11.39 30.3371 11.6328 30.4705 11.898 30.4996C12.1632 30.5288 12.4291 30.4514 12.6373 30.2845C12.8455 30.1176 12.9788 29.8749 13.008 29.6096C13.2276 27.6548 14.1597 25.8494 15.6262 24.5384C17.0927 23.2274 18.9909 22.5027 20.958 22.5027C22.9251 22.5027 24.8232 23.2274 26.2898 24.5384C27.7563 25.8494 28.6884 27.6548 28.908 29.6096C28.9352 29.8554 29.0524 30.0823 29.2371 30.2467C29.4218 30.411 29.6608 30.5011 29.908 30.4996H30.018C30.2801 30.4695 30.5197 30.3369 30.6845 30.1309C30.8494 29.9248 30.9261 29.662 30.898 29.3996C30.6975 27.5958 30.0099 25.8806 28.9088 24.4378C27.8078 22.9951 26.3349 21.8791 24.648 21.2096ZM20.938 20.4996C20.1469 20.4996 19.3735 20.265 18.7157 19.8255C18.0579 19.386 17.5452 18.7613 17.2425 18.0304C16.9397 17.2995 16.8605 16.4952 17.0148 15.7193C17.1692 14.9434 17.5501 14.2306 18.1096 13.6712C18.669 13.1118 19.3817 12.7308 20.1576 12.5765C20.9335 12.4222 21.7378 12.5014 22.4687 12.8041C23.1996 13.1069 23.8243 13.6196 24.2639 14.2774C24.7034 14.9352 24.938 15.7085 24.938 16.4996C24.938 17.5605 24.5166 18.5779 23.7664 19.3281C23.0163 20.0782 21.9989 20.4996 20.938 20.4996Z" fill="black"/>
</svg>
